#!OML:ASF X:\2005_08_12_Meinard\c3d\meinard.ASF
:FULLY-SPECIFIED
:DEGREES
104
root 3.31788 16.4983 0.610747 133.386 -82.234 -155.176
lowerback 33.3786 -0.602875 1.67616
upperback 1.808 -0.414777 0.696735
thorax -15.2532 -0.426889 0.0749987
lowerneck -16.5752 -1.70995 -3.12013
upperneck 10.0282 -2.4809 6.1443
head 5.85835 -0.856575 2.21926
rclavicle -8.01351e-016 -1.19271e-015
rhumerus -10.5469 -22.4021 -0.677715
rradius 11.5052
rwrist 24.5669
rhand 0.0922039 -12.8463
rfingers 7.12502
rthumb 25.6787 -41.1343
lclavicle -8.01351e-016 -1.19271e-015
lhumerus -17.0608 -30.402 -7.94382
lradius 18.5205
lwrist -146.821
lhand -0.853279 0.500445
lfingers 7.12502
lthumb 24.7728 28.9161
rfemur 12.7293 2.25432 16.522
rtibia 33.6778
rfoot -19.3677 -20.8484
rtoes 8.65925
lfemur 11.162 -7.9854 -16.2009
ltibia 40.5616
lfoot -23.4424 32.619
ltoes 12.6171
105
root 3.3192 16.4986 0.611707 133.462 -82.2163 -155.255
lowerback 33.3783 -0.597894 1.6597
upperback 1.8144 -0.414142 0.703731
thorax -15.2455 -0.425537 0.0912757
lowerneck -16.6505 -1.72346 -3.16489
upperneck 10.0832 -2.49542 6.18061
head 5.89 -0.860642 2.23689
rclavicle 1.07841e-014 9.34288e-015
rhumerus -10.5266 -22.6803 -0.682784
rradius 11.5038
rwrist 24.8125
rhand 0.0579142 -12.7839
rfingers 7.12502
rthumb 25.6458 -41.0766
lclavicle 1.07841e-014 9.34288e-015
lhumerus -17.0961 -30.8121 -7.85598
lradius 18.4356
lwrist -146.284
lhand -0.733935 0.563717
lfingers 7.12502
lthumb 24.8872 28.9636
rfemur 12.7264 2.32066 16.5505
rtibia 33.6752
rfoot -19.3617 -20.8949
rtoes 8.66585
lfemur 11.153 -7.93478 -16.1834
ltibia 40.5636
lfoot -23.4047 32.6046
ltoes 12.6732
106
root 3.3207 16.4984 0.612938 133.463 -82.2073 -155.255
lowerback 33.3665 -0.59979 1.65248
upperback 1.82756 -0.419693 0.710029
thorax -15.2249 -0.427585 0.104265
lowerneck -16.7388 -1.73494 -3.19489
upperneck 10.1506 -2.50881 6.20275
head 5.92728 -0.864277 2.24774
rclavicle -1.717e-014 -6.4605e-015
rhumerus -10.4984 -22.6875 -0.716306
rradius 11.5055
rwrist 24.7485
rhand -0.0116156 -12.7285
rfingers 7.12502
rthumb 25.5792 -41.0308
lclavicle -1.717e-014 -6.4605e-015
lhumerus -17.1321 -31.3288 -7.73976
lradius 18.3418
lwrist -145.624
lhand -0.562024 0.61069
lfingers 7.12502
lthumb 25.0519 28.9877
rfemur 12.7214 2.37797 16.5818
rtibia 33.6719
rfoot -19.353 -20.9451
rtoes 8.673
lfemur 11.1413 -7.92945 -16.179
ltibia 40.5658
lfoot -23.3839 32.6143
ltoes 12.699
107
root 3.3229 16.4988 0.613939 133.524 -82.1925 -155.308
lowerback 33.3563 -0.590648 1.6431
upperback 1.83148 -0.411285 0.71344
thorax -15.2158 -0.423219 0.109345
lowerneck -16.7837 -1.75183 -3.20163
upperneck 10.1853 -2.53026 6.19912
head 5.94678 -0.874023 2.24562
rclavicle -7.83957e-015 2.61402e-014
rhumerus -10.4946 -22.7319 -0.732288
rradius 11.4881
rwrist 24.7782
rhand -0.153349 -12.6742
rfingers 7.12502
rthumb 25.4435 -40.996
lclavicle -7.83957e-015 2.61402e-014
lhumerus -17.1522 -31.8081 -7.62542
lradius 18.2701
lwrist -145.014
lhand -0.330728 0.6806
lfingers 7.12502
lthumb 25.2736 29.0265
rfemur 12.7117 2.48559 16.6359
rtibia 33.6673
rfoot -19.357 -21.035
rtoes 8.63426
lfemur 11.1213 -7.92991 -16.1821
ltibia 40.5681
lfoot -23.3694 32.6345
ltoes 12.7052
108
root 3.32556 16.4991 0.615301 133.56 -82.188 -155.342
lowerback 33.3492 -0.591702 1.63077
upperback 1.85212 -0.418901 0.716358
thorax -15.1885 -0.426182 0.122318
lowerneck -16.8862 -1.77017 -3.23466
upperneck 10.2508 -2.55314 6.22994
head 5.98653 -0.881511 2.25875
rclavicle -1.11319e-014 -1.49089e-015
rhumerus -10.464 -22.8572 -0.762071
rradius 11.4717
rwrist 24.8828
rhand -0.271217 -12.5822
rfingers 7.12502
rthumb 25.3306 -40.92
lclavicle -1.11319e-014 -1.49089e-015
lhumerus -17.213 -32.5013 -7.46481
lradius 18.1951
lwrist -144.174
lhand -0.0491283 0.729994
lfingers 7.12502
lthumb 25.5433 29.0375
rfemur 12.7017 2.53563 16.6555
rtibia 33.6668
rfoot -19.3316 -21.0833
rtoes 8.6639
lfemur 11.1015 -7.88806 -16.1631
ltibia 40.5671
lfoot -23.343 32.5913
ltoes 12.699
109
root 3.32846 16.4994 0.616699 133.641 -82.1711 -155.404
lowerback 33.3278 -0.585429 1.60189
upperback 1.85892 -0.419092 0.737646
thorax -15.1713 -0.423812 0.161015
lowerneck -16.943 -1.77841 -3.29444
upperneck 10.2983 -2.55407 6.24938
head 6.01201 -0.881172 2.27481
rclavicle -5.6343e-015 -5.26779e-015
rhumerus -10.3766 -22.6762 -0.812685
rradius 11.3993
rwrist 24.6938
rhand -0.460865 -12.5374
rfingers 7.12502
rthumb 25.1489 -40.9009
lclavicle -5.6343e-015 -5.26779e-015
lhumerus -17.3123 -32.99 -7.30092
lradius 18.1811
lwrist -143.513
lhand 0.223954 0.802065
lfingers 7.12502
lthumb 25.8049 29.0718
rfemur 12.6739 2.63434 16.7024
rtibia 33.6651
rfoot -19.3312 -21.1615
rtoes 8.69163
lfemur 11.0682 -7.88616 -16.1652
ltibia 40.567
lfoot -23.3174 32.6168
ltoes 12.7193
110
root 3.33137 16.5003 0.618327 133.741 -82.1787 -155.506
lowerback 33.3242 -0.579117 1.57807
upperback 1.87598 -0.421568 0.737286
thorax -15.1497 -0.423792 0.174461
lowerneck -16.9732 -1.79563 -3.32234
upperneck 10.3161 -2.57302 6.26322
head 6.02416 -0.889644 2.28192
rclavicle -6.21823e-015 -2.14687e-014
rhumerus -10.3277 -22.4097 -0.863683
rradius 11.3341
rwrist 24.4086
rhand -0.672411 -12.5135
rfingers 7.12502
rthumb 24.9462 -40.9052
lclavicle -6.21823e-015 -2.14687e-014
lhumerus -17.3662 -33.4152 -7.16751
lradius 18.1943
lwrist -142.975
lhand 0.516181 0.824456
lfingers 7.12502
lthumb 26.0847 29.0532
rfemur 12.6667 2.68071 16.7019
rtibia 33.663
rfoot -19.314 -21.1923
rtoes 8.71986
lfemur 11.0484 -7.84023 -16.1618
ltibia 40.5669
lfoot -23.2689 32.5829
ltoes 12.7781
111
root 3.33447 16.5001 0.619841 133.715 -82.1532 -155.48
lowerback 33.3152 -0.577247 1.58209
upperback 1.89216 -0.418473 0.742711
thorax -15.1267 -0.422963 0.17675
lowerneck -17.0124 -1.80896 -3.36569
upperneck 10.3533 -2.58952 6.3134
head 6.04466 -0.894373 2.30356
rclavicle 4.16205e-016 -2.09718e-014
rhumerus -10.2904 -22.2137 -0.930372
rradius 11.3023
rwrist 24.1988
rhand -0.872013 -12.5283
rfingers 7.12502
rthumb 24.7549 -40.9464
lclavicle 4.16205e-016 -2.09718e-014
lhumerus -17.4082 -33.5143 -7.09529
lradius 18.2676
lwrist -142.833
lhand 0.773151 0.806751
lfingers 7.12502
lthumb 26.3307 28.999
rfemur 12.6584 2.77736 16.765
rtibia 33.6656
rfoot -19.3291 -21.2776
rtoes 8.68235
lfemur 11.033 -7.83967 -16.1484
ltibia 40.5641
lfoot -23.2316 32.608
ltoes 12.8132
112
root 3.33764 16.5011 0.6216 133.722 -82.1536 -155.465
lowerback 33.2775 -0.577494 1.5712
upperback 1.91549 -0.424139 0.749524
thorax -15.0832 -0.424867 0.191942
lowerneck -17.0705 -1.828 -3.38129
upperneck 10.3937 -2.61019 6.30079
head 6.06813 -0.904447 2.30006
rclavicle 1.11288e-014 -6.95746e-015
rhumerus -10.2765 -21.9128 -0.991683
rradius 11.3392
rwrist 23.8897
rhand -0.999755 -12.619
rfingers 7.12502
rthumb 24.6324 -41.0539
lclavicle 1.11288e-014 -6.95746e-015
lhumerus -17.4306 -33.1451 -7.07705
lradius 18.3607
lwrist -143.188
lhand 0.932976 0.796362
lfingers 7.12502
lthumb 26.4837 28.9656
rfemur 12.627 2.85734 16.8051
rtibia 33.6639
rfoot -19.318 -21.3592
rtoes 8.69784
lfemur 10.9817 -7.79386 -16.1193
ltibia 40.5648
lfoot -23.1905 32.5683
ltoes 12.8392
